<svg xmlns="http://www.w3.org/2000/svg" width="64" height="64" viewBox="0 0 24 24" fill="none" stroke="currentColor" stroke-width="2" stroke-linecap="round" stroke-linejoin="round" class="feather feather-tag"><path d="M20.88 14.59l-2.83 2.83a2 2 0 0 1-2.83 0l-1.41-1.41a2 2 0 0 1 0-2.83l2.83-2.83a2 2 0 0 1 2.83 0l1.41 1.41a2 2 0 0 1 0 2.83z"></path><path d="M7.41 7.41a2 2 0 0 1 0-2.83l2.83-2.83a2 2 0 0 1 2.83 0l1.41 1.41a2 2 0 0 1 0 2.83l-2.83 2.83a2 2 0 0 1-2.83 0l-1.41-1.41z"></path><path d="M2 12l2-2 4 4-2 2-4-4z"></path><path d="M12 2l2 2-2 2-2-2 2-2z"></path></svg>
